#N canvas 272 307 596 444 10;
#X obj -1101 -210 tgl 25 0 empty empty DSP 3 12 1 9 -24198 -1 -1 0
1;
#X msg -1099 -179 \; pd dsp \$1;
#X floatatom -1102 147 6 0 0 0 - - -;
#X floatatom -1086 122 6 0 0 0 - - -;
#X text -1045 115 dB;
#X text -1061 145 dB;
#X text -1068 -97 dB;
#X text -1059 -77 dB;
#X text -1036 -79 peak-level;
#X text -1038 -100 rms-level;
#X text -1024 114 peak-level;
#X text -1041 144 rms-level;
#X floatatom -1128 -97 7 -110 20 0 - - -;
#X floatatom -1117 -76 7 -110 20 0 - - -;
#N canvas 236 62 699 530 edit 0;
#X obj 37 222 f;
#X msg 15 201 bang;
#X floatatom 53 200 3 50 88 0 - - -;
#X floatatom 88 222 3 0 37 0 - - -;
#X obj 37 245 pack 0 0;
#X text 115 222 y-label;
#X text 81 200 x-label;
#X obj 292 313 f;
#X msg 270 292 bang;
#X floatatom 308 291 3 -10 10 0 - - -;
#X floatatom 343 313 3 -10 10 0 - - -;
#X obj 292 336 pack 0 0;
#X obj 304 435 f;
#X msg 282 414 bang;
#X floatatom 320 413 3 20 140 0 - - -;
#X floatatom 355 435 3 150 200 0 - - -;
#X obj 304 458 pack 0 0;
#X text 336 291 x-delta;
#X text 370 313 y-delta;
#X text 348 413 x-position;
#X text 382 435 y-position;
#X obj 57 337 f;
#X msg 35 316 bang;
#X floatatom 73 315 3 0 2 0 - - -;
#X floatatom 108 337 3 8 36 0 - - -;
#X obj 57 360 pack 0 0;
#X text 101 315 font;
#X text 137 337 height;
#X floatatom 471 106 1 0 1 0 - - -;
#X msg 52 131 \; foo7_rcv color \$1 \$2;
#X msg 37 270 \; foo7_rcv label_pos \$1 \$2;
#X msg 57 386 \; foo7_rcv label_font \$1 \$2;
#X msg 37 427 \; foo7_rcv label blabla;
#X msg 292 361 \; foo7_rcv delta \$1 \$2;
#X msg 304 483 \; foo7_rcv pos \$1 \$2;
#X msg 469 23 \; foo7_rcv receive foo7a_rcv;
#X msg 469 60 \; foo7a_rcv receive foo7_rcv;
#X text 492 106 display scale;
#X msg 471 132 \; foo7_rcv scale \$1;
#X obj 279 193 f;
#X msg 257 172 bang;
#X floatatom 295 171 3 8 50 0 - - -;
#X floatatom 330 193 3 110 200 0 - - -;
#X obj 279 216 pack 0 0;
#X text 323 171 width;
#X text 357 193 height;
#X msg 279 241 \; foo7_rcv size \$1 \$2;
#X msg 37 463 \; foo7_rcv label vu-meter;
#X obj 52 79 f;
#X msg 29 31 bang;
#X floatatom 68 29 3 0 29 0 - - -;
#X floatatom 103 47 3 0 29 0 - - -;
#X text 96 29 background;
#X text 131 48 label-color;
#X msg 290 25 back;
#X msg 290 49 label;
#X msg 252 25 bang;
#N canvas 15 207 606 448 RGB_____________ 0;
#X obj 97 56 inlet;
#X obj 262 53 inlet;
#X obj 339 55 inlet;
#X obj 405 56 inlet;
#X obj 97 270 bang;
#X msg 77 295 0;
#X msg 104 295 1;
#X obj 146 268 bang;
#X msg 132 295 0;
#X msg 160 295 1;
#X obj 265 313 spigot;
#X obj 312 313 spigot;
#X obj 249 385 outlet;
#X text 93 33 select;
#X text 267 28 red;
#X text 337 30 green;
#X text 409 30 blue;
#X obj 405 102 t b f;
#X obj 339 160 +;
#X obj 339 185 t b f;
#X obj 339 216 +;
#X obj 296 385 outlet;
#X obj 28 180 loadbang;
#X obj 296 361 f;
#X obj 249 361 f;
#X obj 262 79 * -65536;
#X obj 339 80 * -256;
#X obj 405 80 * -1;
#X obj 339 247 - 1;
#X obj 97 135 route back label bang;
#X obj 235 168 t b b b;
#X connect 0 0 29 0;
#X connect 1 0 25 0;
#X connect 2 0 26 0;
#X connect 3 0 27 0;
#X connect 4 0 5 0;
#X connect 4 0 6 0;
#X connect 5 0 11 1;
#X connect 6 0 10 1;
#X connect 7 0 8 0;
#X connect 7 0 9 0;
#X connect 8 0 10 1;
#X connect 9 0 11 1;
#X connect 10 0 24 1;
#X connect 11 0 23 1;
#X connect 17 0 18 0;
#X connect 17 1 18 1;
#X connect 18 0 19 0;
#X connect 19 0 20 0;
#X connect 19 1 20 1;
#X connect 20 0 28 0;
#X connect 22 0 6 0;
#X connect 23 0 21 0;
#X connect 24 0 12 0;
#X connect 25 0 20 0;
#X connect 26 0 18 0;
#X connect 27 0 17 0;
#X connect 28 0 11 0;
#X connect 28 0 10 0;
#X connect 29 0 4 0;
#X connect 29 1 7 0;
#X connect 29 2 30 0;
#X connect 30 0 24 0;
#X connect 30 1 23 0;
#X connect 30 2 28 0;
#X restore 290 86 pd RGB_____________;
#X floatatom 332 55 3 0 255 0 - - -;
#X floatatom 375 55 3 0 255 0 - - -;
#X floatatom 418 56 3 0 255 0 - - -;
#X text 39 3 preset-colors;
#X text 301 0 RGB-colors;
#X text 332 37 red;
#X text 368 36 green;
#X text 416 36 blue;
#X obj 52 104 pack 0 0;
#X connect 0 0 4 0;
#X connect 1 0 0 0;
#X connect 2 0 0 1;
#X connect 3 0 4 1;
#X connect 4 0 30 0;
#X connect 7 0 11 0;
#X connect 8 0 7 0;
#X connect 9 0 7 1;
#X connect 10 0 11 1;
#X connect 11 0 33 0;
#X connect 12 0 16 0;
#X connect 13 0 12 0;
#X connect 14 0 12 1;
#X connect 15 0 16 1;
#X connect 16 0 34 0;
#X connect 21 0 25 0;
#X connect 22 0 21 0;
#X connect 23 0 21 1;
#X connect 24 0 25 1;
#X connect 25 0 31 0;
#X connect 28 0 38 0;
#X connect 39 0 43 0;
#X connect 40 0 39 0;
#X connect 41 0 39 1;
#X connect 42 0 43 1;
#X connect 43 0 46 0;
#X connect 48 0 66 0;
#X connect 49 0 48 0;
#X connect 50 0 48 1;
#X connect 51 0 66 1;
#X connect 54 0 57 0;
#X connect 55 0 57 0;
#X connect 56 0 57 0;
#X connect 57 0 66 0;
#X connect 57 1 66 1;
#X connect 58 0 57 1;
#X connect 59 0 57 2;
#X connect 60 0 57 3;
#X connect 66 0 29 0;
#X restore -1062 9 pd edit;
#N canvas 147 336 290 235 source 0;
#X obj 40 95 random 102;
#X obj 40 171 - 101;
#X obj 40 205 pack 0 0;
#X obj 40 45 metro 300;
#X obj 40 69 t b b;
#X obj 133 95 random 20;
#X obj 40 117 t f f;
#X obj 91 147 +;
#X obj 91 172 - 101;
#X obj 40 21 inlet;
#X obj 40 230 outlet;
#X connect 0 0 6 0;
#X connect 1 0 2 0;
#X connect 2 0 10 0;
#X connect 3 0 4 0;
#X connect 4 0 0 0;
#X connect 4 1 5 0;
#X connect 5 0 7 1;
#X connect 6 0 1 0;
#X connect 6 1 7 0;
#X connect 7 0 8 0;
#X connect 8 0 2 1;
#X connect 9 0 3 0;
#X restore -1136 -142 pd source;
#X obj -1076 -119 s fff;
#X obj -1135 -38 vu 15 120 empty empty -1 -8 0 10 -66577 -1 1 0;
#X obj -1188 -38 vu 15 120 empty empty -1 -8 0 10 -66577 -1 1 0;
#X floatatom -1178 151 6 0 0 0 - - -;
#X floatatom -1170 121 6 0 0 0 - - -;
#N canvas 373 23 1875 1002 META 1;
#X obj 822 -205 adc~;
#N canvas 0 22 796 453 (subpatch) 0;
#X array array1 100 float 3;
#A 0 -8.9407e-06 0.000280738 5.36442e-05 0.000177026 6.25849e-05 9.83477e-06
4.20213e-05 5.63264e-05 7.86781e-05 -8.9407e-05 0.000429153 -6.25849e-05
2.95043e-05 -6.07967e-05 -0.000348687 -0.00012964 -7.95722e-05 6.34789e-05
-4.55976e-05 0.000167191 -4.02331e-05 8.22544e-05 6.25849e-06 0.000126958
1.3411e-05 0.000403225 -7.86781e-05 0.0002262 0.00025034 1.60933e-05
0.000246763 0.000175238 3.57628e-06 0.000253022 6.79493e-05 0.000137687
0.00015825 4.47035e-05 9.92417e-05 0.000184178 -4.64916e-05 -3.57628e-06
5.36442e-05 -0.000394285 7.689e-05 0.00015378 0.000108182 9.83477e-06
4.02331e-05 3.8445e-05 4.38094e-05 9.56655e-05 9.47714e-05 -7.42078e-05
-2.68221e-06 -1.78814e-05 -5.72205e-05 2.86102e-05 3.39746e-05 7.95722e-05
-1.07288e-05 -3.8445e-05 0.00015378 0.000208318 0.000224411 -1.78814e-05
-0.000109076 0.000120699 0.000326335 -1.2517e-05 -7.77841e-05 -2.5034e-05
0.000141263 -4.73857e-05 -0.000179708 0.000224411 -6.52671e-05 0.000101924
-3.39746e-05 2.32458e-05 -4.20213e-05 -7.59959e-05 0.000151098 4.38094e-05
-0.000271797 0.000177026 0.000242293 -7.51019e-05 -5.36442e-05 -4.02331e-05
0.000472069 0.00025481 0.000160038 0.000200272 0.000189543 0.000196695
-2.95043e-05 -7.77841e-05 -0.00017345 -1.3411e-05;
#X coords 0 1 99 -1 200 140 1;
#X restore 1066 -250 graph;
#X obj 958 -161 tabwrite~ array1;
#X obj 958 -203 bng 15 250 50 0 empty empty empty 17 7 0 10 -262144
-1 -1;
#X obj 813 -73 threshold~ 1 3000 0.1 1000;
#X text 1024 -183 msec.;
#X text 664 -167 input sensitivity mic;
#X obj 958 -182 metro 160;
#X obj 599 638 freeverb~;
#X msg 708 -122 roomsize \$1;
#X msg 708 -77 damping \$1;
#X msg 710 -25 width \$1;
#X msg 710 19 wet \$1;
#X msg 710 63 dry \$1;
#X msg 919 48 print;
#X msg 813 10 freeze \$1;
#X msg 824 68 bypass \$1;
#X obj 824 49 tgl 15 0 empty empty empty 0 -6 0 8 -262144 -1 -1 0 1
;
#X obj 813 -10 tgl 15 0 empty empty empty 0 -6 0 8 -262144 -1 -1 0
1;
#X obj 722 40 hsl 60 18 0 1 0 1 empty empty dry 2 9 1 12 -225271 -1
-1 2800 0;
#X obj 722 -4 hsl 60 18 0 1 0 1 empty empty wet 2 9 1 12 -225271 -1
-1 1300 0;
#X obj 720 -56 hsl 60 18 0 1 0 1 empty empty width 2 9 1 12 -262131
-1 -1 4200 0;
#X obj 720 -100 hsl 60 18 0 2 0 1 empty empty damping 2 9 1 12 -261689
-1 -1 1500 0;
#X obj 725 -146 hsl 60 18 0.11 1.1 0 1 empty empty roomsize 2 9 1 12
-261689 -1 -1 4600 0;
#X floatatom 690 -141 3 0 0 0 - - -;
#X floatatom 690 -96 3 0 0 0 - - -;
#X floatatom 690 -51 3 0 0 0 - - -;
#X floatatom 692 0 3 0 0 0 - - -;
#X floatatom 692 44 3 0 0 0 - - -;
#X obj 608 697 dac~;
#X text 895 -29 msec.;
#X obj 1165 74 fiddle~;
#X obj 1165 126 moses 60;
#X obj 901 167 bng 15 250 50 0 empty empty empty 17 7 0 10 -262144
-1 -1;
#X obj 974 168 bng 15 250 50 0 empty empty empty 17 7 0 10 -262144
-1 -1;
#X floatatom 1165 98 5 0 0 0 - - -;
#X msg 901 232 freeze \$1;
#X obj 901 213 tgl 15 0 empty empty empty 0 -6 0 8 -262144 -1 -1 0
1;
#X msg 974 233 freeze \$1;
#X obj 974 214 tgl 15 0 empty empty empty 0 -6 0 8 -262144 -1 -1 0
1;
#X obj 901 191 metro 3500;
#X obj 974 190 metro 3500;
#X obj 813 -50 bng 15 250 50 0 empty empty empty 17 7 0 10 -262144
-1 -1;
#X obj 813 -30 metro 2500;
#X obj 1048 166 bng 15 250 50 0 empty empty empty 17 7 0 10 -262144
-1 -1;
#X obj 1121 167 bng 15 250 50 0 empty empty empty 17 7 0 10 -262144
-1 -1;
#X msg 1048 231 freeze \$1;
#X obj 1048 212 tgl 15 0 empty empty empty 0 -6 0 8 -262144 -1 -1 0
1;
#X msg 1121 232 freeze \$1;
#X obj 1121 213 tgl 15 0 empty empty empty 0 -6 0 8 -262144 -1 -1 0
1;
#X obj 1048 190 metro 1500;
#X obj 753 599 writesf~ 2;
#X msg 1083 586 start;
#X msg 938 536 stop;
#X msg 897 536 print;
#X text 927 581 1;
#X text 1066 582 2;
#X floatatom 183 48 5 0 0 0 - - -;
#X msg 234 193 open f1.wav \, 1;
#X msg 221 149 open N8.wav \, 1;
#X msg 228 169 open N10.wav \, 1;
#X msg 201 110 open N2.wav \, 1;
#X obj 1121 189 metro 1500;
#X obj 865 259 bng 15 250 50 0 empty empty empty 17 7 0 10 -262144
-1 -1;
#X obj 938 260 bng 15 250 50 0 empty empty empty 17 7 0 10 -262144
-1 -1;
#X msg 865 324 freeze \$1;
#X obj 865 305 tgl 15 0 empty empty empty 0 -6 0 8 -262144 -1 -1 0
1;
#X msg 938 325 freeze \$1;
#X obj 938 306 tgl 15 0 empty empty empty 0 -6 0 8 -262144 -1 -1 0
1;
#X obj 865 283 metro 5000;
#X obj 938 282 metro 5000;
#X obj 183 4 metro 1.2e+06;
#X msg 211 131 open osc.wav \, 1;
#X msg 243 213 open phasor.wav \, 1;
#X msg 253 238 open patio.wav \, 1;
#X msg 261 269 open síntesis.wav \, 1;
#X obj 1040 264 bng 15 250 50 0 empty empty empty 17 7 0 10 -262144
-1 -1;
#X obj 1113 265 bng 15 250 50 0 empty empty empty 17 7 0 10 -262144
-1 -1;
#X msg 1040 329 freeze \$1;
#X obj 1040 310 tgl 15 0 empty empty empty 0 -6 0 8 -262144 -1 -1 0
1;
#X msg 1113 330 freeze \$1;
#X obj 1113 311 tgl 15 0 empty empty empty 0 -6 0 8 -262144 -1 -1 0
1;
#X obj 1040 288 metro 1000;
#X obj 1113 287 metro 1000;
#X obj 813 -101 *~ 7.5;
#X obj -201 -91 threshold~ 1 3000 0.1 1000;
#X obj -201 -68 bng 15 250 50 0 empty empty empty 17 7 0 10 -262144
-1 -1;
#X floatatom -201 -1 5 0 0 0 - - -;
#X msg -130 310 open a10.wav \, 1;
#X msg -111 354 open a12.wav \, 1;
#X msg -201 104 open a01.wav \, 1;
#X msg -191 125 open a02.wav \, 1;
#X msg -181 143 open a03.wav \, 1;
#X msg -174 163 open a04.wav \, 1;
#X msg -168 187 open a05.wav \, 1;
#X msg -159 207 open a06.wav \, 1;
#X msg -149 232 open a07.wav \, 1;
#X msg -146 258 open a08.wav \, 1;
#X msg -136 283 open a09.wav \, 1;
#X msg -88 103 open a13.wav \, 1;
#X msg -78 124 open a14.wav \, 1;
#X msg -68 142 open a15.wav \, 1;
#X msg -61 162 open a16.wav \, 1;
#X msg -55 186 open a17.wav \, 1;
#X msg -46 206 open a18.wav \, 1;
#X msg -36 231 open a19.wav \, 1;
#X msg -33 257 open a20.wav \, 1;
#X msg -23 282 open a21.wav \, 1;
#X msg -17 309 open a22.wav \, 1;
#X msg -4 331 open a23.wav \, 1;
#X msg 2 353 open a24.wav \, 1;
#X msg 13 79 open a25.wav \, 1;
#X msg 23 100 open a26.wav \, 1;
#X msg 33 118 open a27.wav \, 1;
#X msg 40 138 open a28.wav \, 1;
#X msg 46 162 open a29.wav \, 1;
#X msg 53 187 open a30.wav \, 1;
#X obj -79 423 readsf~ 30;
#X obj -201 -24 random 30;
#X obj -201 -45 metro 105000;
#X msg -117 332 open air3D.wav \, 1;
#X obj -370 -90 threshold~ 1 3000 0.1 1000;
#X obj -371 -65 bng 15 250 50 0 empty empty empty 17 7 0 10 -262144
-1 -1;
#X floatatom -370 0 5 0 0 0 - - -;
#X obj -369 -44 metro 1.05e+06;
#X obj -202 -113 *~ 5.5;
#X msg -370 82 open C2007.wav \, 1;
#X msg -360 111 open WL2008.wav \, 1;
#X floatatom 1214 99 5 0 0 0 - - -;
#X floatatom 1262 99 5 0 0 0 - - -;
#X floatatom 1314 97 5 0 0 0 - - -;
#X obj -371 -112 *~ 2.5;
#X msg -351 140 open M2006.wav \, 1;
#X msg -341 169 open TDS2009.wav \, 1;
#X msg -333 201 open AVPA2010.wav \, 1;
#X obj -370 -23 random 5;
#X obj -369 23 sel 0 1 2 3 4;
#X obj -360 366 readsf~ 5;
#X obj 711 652 delwrite~ delayLeft 4000;
#X obj 709 628 delwrite~ delayRight 4000;
#X obj 701 692 delread~ delayRight 1500;
#X obj 703 716 delread~ delayLeft 1000;
#X text 936 556 CAMBIAR NOMBRE FICHERO CADA NUEVA REC.;
#X msg 270 290 open N1.wav \, 1;
#X msg 280 312 open N3.wav \, 1;
#X msg 290 330 open N4.wav \, 1;
#X msg 297 350 open N5.wav \, 1;
#X msg 303 374 open N6.wav \, 1;
#X msg 312 394 open N7.wav \, 1;
#X msg 322 419 open N9.wav \, 1;
#X msg 330 450 open N11.wav \, 1;
#X msg 333 475 open N12.wav \, 1;
#X obj 183 81 sel 0 1 2 3 4 5 6 7 8 9 10 11 12 13 14 15 16;
#X obj 183 25 random 17;
#X obj 219 477 readsf~ 17;
#X obj -202 20 sel 0 1 2 3 4 5 6 7 8 9 10 11 12 13 14 15 16 17 18 19
20 21 22 23 24 25 26 27 28 29;
#X obj 500 65 threshold~ 1 3000 0.1 1000;
#X obj 500 88 bng 15 250 50 0 empty empty empty 17 7 0 10 -262144 -1
-1;
#X floatatom 500 155 5 0 0 0 - - -;
#X obj 501 111 metro 1.05e+06;
#X obj 499 43 *~ 15;
#X obj 1282 167 bng 15 250 50 0 empty empty empty 17 7 0 10 -262144
-1 -1;
#X msg 1282 232 freeze \$1;
#X obj 1282 213 tgl 15 0 empty empty empty 0 -6 0 8 -262144 -1 -1 0
1;
#X obj 1274 265 bng 15 250 50 0 empty empty empty 17 7 0 10 -262144
-1 -1;
#X msg 1274 330 freeze \$1;
#X obj 1274 311 tgl 15 0 empty empty empty 0 -6 0 8 -262144 -1 -1 0
1;
#X obj 1274 287 metro 1000;
#X obj 1212 169 bng 15 250 50 0 empty empty empty 17 7 0 10 -262144
-1 -1;
#X msg 1212 234 freeze \$1;
#X obj 1212 215 tgl 15 0 empty empty empty 0 -6 0 8 -262144 -1 -1 0
1;
#X obj 1204 267 bng 15 250 50 0 empty empty empty 17 7 0 10 -262144
-1 -1;
#X msg 1204 332 freeze \$1;
#X obj 1204 313 tgl 15 0 empty empty empty 0 -6 0 8 -262144 -1 -1 0
1;
#X obj 1204 289 metro 1000;
#X obj 1212 191 metro 5000;
#X obj 1282 189 metro 5000;
#X obj 1430 167 bng 15 250 50 0 empty empty empty 17 7 0 10 -262144
-1 -1;
#X msg 1430 232 freeze \$1;
#X obj 1430 213 tgl 15 0 empty empty empty 0 -6 0 8 -262144 -1 -1 0
1;
#X obj 1422 265 bng 15 250 50 0 empty empty empty 17 7 0 10 -262144
-1 -1;
#X msg 1422 330 freeze \$1;
#X obj 1422 311 tgl 15 0 empty empty empty 0 -6 0 8 -262144 -1 -1 0
1;
#X obj 1422 287 metro 1000;
#X obj 1360 169 bng 15 250 50 0 empty empty empty 17 7 0 10 -262144
-1 -1;
#X msg 1360 234 freeze \$1;
#X obj 1360 215 tgl 15 0 empty empty empty 0 -6 0 8 -262144 -1 -1 0
1;
#X obj 1352 267 bng 15 250 50 0 empty empty empty 17 7 0 10 -262144
-1 -1;
#X msg 1352 332 freeze \$1;
#X obj 1352 313 tgl 15 0 empty empty empty 0 -6 0 8 -262144 -1 -1 0
1;
#X obj 1352 289 metro 1000;
#X obj 1360 191 metro 6000;
#X obj 1430 189 metro 6000;
#X msg 500 237 open op1.wav \, 1;
#X msg 510 265 open op4.wav \, 1;
#X msg 523 292 open op4(Re).wav \, 1;
#X msg 526 320 open op5.wav \, 1;
#X msg -205 621 bang;
#X msg -249 592 bang;
#X floatatom -249 683 0 0 0 0 - - -;
#X text -208 590 Click here to reset;
#X text -252 709 Output is in milliseconds;
#X obj -249 652 cputime;
#X text -155 621 Click here to get elapsed CPU time;
#X msg 536 349 open AC2015.wav \, 1;
#X msg 544 404 open IF.wav \, 1;
#X msg 539 377 open AN.wav \, 1;
#X obj 501 178 sel 0 1 2 3 4 5 6 7;
#X obj 500 132 random 8;
#X obj 504 475 readsf~ 8;
#X msg 550 431 open MIDImix.wav \, 1;
#X msg 945 584 open op18.wav;
#X text 644 -236 [D.E.A.R] \, Miguel Oliveros \, Madrid \, 2014-15.
;
#X connect 0 0 31 0;
#X connect 0 0 8 0;
#X connect 0 0 8 1;
#X connect 0 0 84 0;
#X connect 0 0 125 0;
#X connect 0 0 131 0;
#X connect 0 0 160 0;
#X connect 3 0 7 0;
#X connect 4 0 42 0;
#X connect 7 0 2 0;
#X connect 8 0 29 0;
#X connect 8 0 51 0;
#X connect 8 0 138 0;
#X connect 8 1 29 1;
#X connect 8 1 51 1;
#X connect 8 1 139 0;
#X connect 9 0 8 0;
#X connect 10 0 8 0;
#X connect 11 0 8 0;
#X connect 12 0 8 0;
#X connect 13 0 8 0;
#X connect 14 0 8 0;
#X connect 15 0 8 0;
#X connect 16 0 8 0;
#X connect 17 0 16 0;
#X connect 18 0 15 0;
#X connect 19 0 13 0;
#X connect 19 0 28 0;
#X connect 20 0 12 0;
#X connect 20 0 27 0;
#X connect 21 0 11 0;
#X connect 21 0 26 0;
#X connect 22 0 10 0;
#X connect 22 0 25 0;
#X connect 23 0 9 0;
#X connect 23 0 24 0;
#X connect 31 0 35 0;
#X connect 31 1 128 0;
#X connect 31 2 129 0;
#X connect 31 3 130 0;
#X connect 32 0 33 0;
#X connect 32 0 44 0;
#X connect 32 0 168 0;
#X connect 32 0 184 0;
#X connect 32 1 34 0;
#X connect 32 1 45 0;
#X connect 32 1 161 0;
#X connect 32 1 177 0;
#X connect 33 0 40 0;
#X connect 33 0 63 0;
#X connect 34 0 41 0;
#X connect 34 0 64 0;
#X connect 35 0 32 0;
#X connect 36 0 8 0;
#X connect 37 0 36 0;
#X connect 38 0 8 0;
#X connect 39 0 38 0;
#X connect 40 0 37 0;
#X connect 41 0 39 0;
#X connect 42 0 43 0;
#X connect 42 0 71 0;
#X connect 43 0 18 0;
#X connect 44 0 50 0;
#X connect 44 0 76 0;
#X connect 45 0 62 0;
#X connect 45 0 77 0;
#X connect 46 0 8 0;
#X connect 47 0 46 0;
#X connect 48 0 8 0;
#X connect 49 0 48 0;
#X connect 50 0 47 0;
#X connect 52 0 51 0;
#X connect 53 0 51 0;
#X connect 54 0 51 0;
#X connect 57 0 152 0;
#X connect 58 0 154 0;
#X connect 59 0 154 0;
#X connect 60 0 154 0;
#X connect 61 0 154 0;
#X connect 62 0 49 0;
#X connect 63 0 69 0;
#X connect 64 0 70 0;
#X connect 65 0 8 0;
#X connect 66 0 65 0;
#X connect 67 0 8 0;
#X connect 68 0 67 0;
#X connect 69 0 66 0;
#X connect 70 0 68 0;
#X connect 71 0 153 0;
#X connect 72 0 154 0;
#X connect 73 0 154 0;
#X connect 74 0 154 0;
#X connect 75 0 154 0;
#X connect 76 0 82 0;
#X connect 77 0 83 0;
#X connect 78 0 8 0;
#X connect 79 0 78 0;
#X connect 80 0 8 0;
#X connect 81 0 80 0;
#X connect 82 0 79 0;
#X connect 83 0 81 0;
#X connect 84 0 2 0;
#X connect 84 0 4 0;
#X connect 85 0 86 0;
#X connect 86 0 119 0;
#X connect 87 0 155 0;
#X connect 88 0 117 0;
#X connect 89 0 117 0;
#X connect 90 0 117 0;
#X connect 91 0 117 0;
#X connect 92 0 117 0;
#X connect 93 0 117 0;
#X connect 94 0 117 0;
#X connect 95 0 117 0;
#X connect 96 0 117 0;
#X connect 97 0 117 0;
#X connect 98 0 117 0;
#X connect 99 0 117 0;
#X connect 100 0 117 0;
#X connect 101 0 117 0;
#X connect 102 0 117 0;
#X connect 103 0 117 0;
#X connect 104 0 117 0;
#X connect 105 0 117 0;
#X connect 106 0 117 0;
#X connect 107 0 117 0;
#X connect 108 0 117 0;
#X connect 109 0 117 0;
#X connect 110 0 117 0;
#X connect 111 0 117 0;
#X connect 112 0 117 0;
#X connect 113 0 117 0;
#X connect 114 0 117 0;
#X connect 115 0 117 0;
#X connect 116 0 117 0;
#X connect 117 0 8 0;
#X connect 117 0 8 1;
#X connect 117 1 8 0;
#X connect 117 2 8 1;
#X connect 117 12 8 1;
#X connect 117 28 8 1;
#X connect 117 29 8 1;
#X connect 117 30 8 1;
#X connect 118 0 87 0;
#X connect 119 0 118 0;
#X connect 120 0 117 0;
#X connect 121 0 122 0;
#X connect 122 0 124 0;
#X connect 123 0 136 0;
#X connect 124 0 135 0;
#X connect 125 0 85 0;
#X connect 126 0 137 0;
#X connect 127 0 137 0;
#X connect 131 0 121 0;
#X connect 132 0 137 0;
#X connect 133 0 137 0;
#X connect 134 0 137 0;
#X connect 135 0 123 0;
#X connect 136 0 126 0;
#X connect 136 1 127 0;
#X connect 136 2 132 0;
#X connect 136 3 133 0;
#X connect 136 4 134 0;
#X connect 137 0 8 0;
#X connect 137 1 8 1;
#X connect 137 2 8 1;
#X connect 137 3 8 1;
#X connect 137 4 8 1;
#X connect 137 5 8 1;
#X connect 140 0 29 1;
#X connect 140 0 51 1;
#X connect 141 0 29 0;
#X connect 141 0 51 0;
#X connect 143 0 154 0;
#X connect 144 0 154 0;
#X connect 145 0 154 0;
#X connect 146 0 154 0;
#X connect 147 0 154 0;
#X connect 148 0 154 0;
#X connect 149 0 154 0;
#X connect 150 0 154 0;
#X connect 151 0 154 0;
#X connect 152 0 61 0;
#X connect 152 1 72 0;
#X connect 152 2 59 0;
#X connect 152 3 60 0;
#X connect 152 4 58 0;
#X connect 152 5 73 0;
#X connect 152 6 74 0;
#X connect 152 7 75 0;
#X connect 152 8 143 0;
#X connect 152 9 144 0;
#X connect 152 10 145 0;
#X connect 152 11 146 0;
#X connect 152 12 147 0;
#X connect 152 13 148 0;
#X connect 152 14 149 0;
#X connect 152 15 150 0;
#X connect 152 16 151 0;
#X connect 153 0 57 0;
#X connect 154 0 8 0;
#X connect 154 1 8 1;
#X connect 154 8 8 1;
#X connect 154 16 8 1;
#X connect 155 0 90 0;
#X connect 155 1 91 0;
#X connect 155 2 92 0;
#X connect 155 3 93 0;
#X connect 155 4 94 0;
#X connect 155 5 95 0;
#X connect 155 6 96 0;
#X connect 155 7 97 0;
#X connect 155 8 98 0;
#X connect 155 9 88 0;
#X connect 155 10 120 0;
#X connect 155 11 89 0;
#X connect 155 12 99 0;
#X connect 155 13 100 0;
#X connect 155 14 101 0;
#X connect 155 15 102 0;
#X connect 155 16 103 0;
#X connect 155 17 104 0;
#X connect 155 18 105 0;
#X connect 155 19 106 0;
#X connect 155 20 107 0;
#X connect 155 21 108 0;
#X connect 155 22 109 0;
#X connect 155 23 110 0;
#X connect 155 24 111 0;
#X connect 155 25 112 0;
#X connect 155 26 113 0;
#X connect 155 27 114 0;
#X connect 155 28 115 0;
#X connect 155 29 116 0;
#X connect 156 0 157 0;
#X connect 157 0 159 0;
#X connect 158 0 207 0;
#X connect 159 0 208 0;
#X connect 160 0 156 0;
#X connect 161 0 164 0;
#X connect 161 0 176 0;
#X connect 163 0 162 0;
#X connect 164 0 167 0;
#X connect 165 0 8 0;
#X connect 166 0 165 0;
#X connect 167 0 166 0;
#X connect 168 0 171 0;
#X connect 168 0 175 0;
#X connect 170 0 169 0;
#X connect 171 0 174 0;
#X connect 172 0 8 0;
#X connect 173 0 172 0;
#X connect 174 0 173 0;
#X connect 175 0 170 0;
#X connect 176 0 163 0;
#X connect 177 0 180 0;
#X connect 177 0 192 0;
#X connect 179 0 178 0;
#X connect 180 0 183 0;
#X connect 181 0 8 0;
#X connect 182 0 181 0;
#X connect 183 0 182 0;
#X connect 184 0 187 0;
#X connect 184 0 191 0;
#X connect 186 0 185 0;
#X connect 187 0 190 0;
#X connect 188 0 8 0;
#X connect 189 0 188 0;
#X connect 190 0 189 0;
#X connect 191 0 186 0;
#X connect 192 0 179 0;
#X connect 193 0 209 0;
#X connect 194 0 209 0;
#X connect 195 0 209 0;
#X connect 196 0 209 0;
#X connect 197 0 202 1;
#X connect 198 0 202 0;
#X connect 202 0 199 0;
#X connect 204 0 209 0;
#X connect 205 0 209 0;
#X connect 206 0 209 0;
#X connect 207 0 193 0;
#X connect 207 1 194 0;
#X connect 207 2 195 0;
#X connect 207 3 196 0;
#X connect 207 4 204 0;
#X connect 207 5 206 0;
#X connect 207 6 205 0;
#X connect 207 7 210 0;
#X connect 208 0 158 0;
#X connect 209 0 8 0;
#X connect 209 1 8 1;
#X connect 209 2 8 1;
#X connect 209 3 8 1;
#X connect 209 4 8 1;
#X connect 209 5 8 1;
#X connect 209 6 8 1;
#X connect 209 7 8 1;
#X connect 209 8 8 1;
#X connect 210 0 209 0;
#X connect 211 0 51 0;
#X restore -980 -176 pd META;
#X text -1329 -230;
#X text -1032 -214 [D.E.A.R] \, Miguel Oliveros \, Madrid \, 2014-15.
;
#X connect 0 0 1 0;
#X connect 0 0 15 0;
#X connect 12 0 17 0;
#X connect 13 0 17 0;
#X connect 15 0 16 0;
#X connect 15 0 17 0;
#X connect 15 0 18 0;
#X connect 17 0 3 0;
#X connect 17 0 2 0;
#X connect 18 0 20 0;
#X connect 18 0 19 0;
