#N canvas -8 -8 1304 725 10;
#X floatatom -175 774 5 0 0 0 - - -;
#X obj 570 692 adc~;
#X obj 569 761 threshold~ 1 3000 0.1 1000;
#X obj -218 1102 dac~ 1 2;
#N canvas 0 0 450 300 (subpatch) 0;
#X array array1 100 float 3;
#A 0 -3.05185e-005 0 0 3.05185e-005 0 0 -3.05185e-005 0 3.05185e-005
0 0 0 0 -3.05185e-005 0 0 0 0 0 -3.05185e-005 0 0 0 0 0 0 0 0 3.05185e-005
0 0 0 0 0 3.05185e-005 0 0 0 -3.05185e-005 -3.05185e-005 0 3.05185e-005
0 0 0 0 0 0 0 0 0 0 0 0 0 0 0 0 0 3.05185e-005 3.05185e-005 -3.05185e-005
0 0 0 0 0 0 3.05185e-005 3.05185e-005 0 0 3.05185e-005 3.05185e-005
0 0 0 0 0 3.05185e-005 0 0 0 0 0 0 -3.05185e-005 0 0 -3.05185e-005
0 0 0 0 0 0 0 3.05185e-005 0 0;
#X coords 0 1 99 -1 200 140 1;
#X restore 352 614 graph;
#X obj 642 679 tabwrite~ array1;
#X obj 642 656 metro 160;
#X msg 757 754 stop;
#X obj 758 619 bng 40 250 50 0 empty empty empty 17 7 0 10 -4034 -1
-1;
#X obj 569 724 *~ 7;
#N canvas 0 0 1304 691 META 1;
#X obj 353 678 +~;
#X obj 352 630 +~;
#X obj 352 655 +~;
#X obj 476 613 +~;
#X obj 353 709 +~;
#X obj 354 732 +~;
#X obj 352 609 +~;
#X obj 583 755 osc~ 493.883;
#X obj 552 527 +~;
#X obj 463 525 +~;
#X obj 361 497 +~;
#X text 485 446 comment;
#X obj 323 527 +~;
#X obj 278 505 +~;
#X obj 323 558 +~;
#X obj 353 587 +~;
#X obj 499 742 osc~ 379.91;
#X obj 580 649 osc~ 292.238;
#X obj 480 645 osc~ 224.798;
#X obj 565 566 osc~ 172.922;
#X obj 477 566 osc~ 133.017;
#X obj 553 475 osc~ 102.321;
#X obj 463 454 osc~ 78.708;
#X obj 361 436 osc~ 60.544;
#X obj 278 436 osc~ 46.572;
#X obj 499 781 +~;
#X obj 580 703 +~;
#X obj 479 703 +~;
#X obj 566 615 +~;
#X obj 582 799 +~;
#X obj 293 469 osc~ 47;
#X obj 376 470 osc~ 61;
#X obj 568 497 osc~ 103;
#X obj 492 585 osc~ 134;
#X obj 580 589 osc~ 173;
#X obj 497 667 osc~ 225;
#X obj 596 672 osc~ 293;
#X obj 518 762 osc~ 380;
#X obj 596 775 osc~ 494;
#X obj 478 486 osc~ 79;
#X obj 354 825 output~;
#X text 424 832 Babel [493.883 hz/ 1.3];
#N canvas 876 177 375 255 startup 0;
#X obj 22 24 loadbang;
#X obj 22 48 bng 15 250 50 0 empty empty empty 0 -6 0 8 -262144 -1
-1;
#X obj 22 67 f \$0;
#X text 35 195 This subpatch loads initial;
#X text 31 219 values in number boxes.;
#X msg 22 91 \; \$1-pole 80;
#X connect 0 0 1 0;
#X connect 1 0 2 0;
#X connect 2 0 5 0;
#X restore 105 815 pd startup;
#N canvas 1597 84 660 424 chord 0;
#X obj 87 97 -~ 0.5;
#X obj 87 146 clip~ -0.5 0.5;
#X obj 87 169 cos~;
#X obj 91 252 hip~ 5;
#X obj 91 315 outlet~;
#X obj 87 122 *~ 3;
#X obj 221 97 -~ 0.5;
#X obj 221 146 clip~ -0.5 0.5;
#X obj 221 169 cos~;
#X obj 221 122 *~ 3;
#X obj 356 100 -~ 0.5;
#X obj 356 149 clip~ -0.5 0.5;
#X obj 356 172 cos~;
#X obj 356 125 *~ 3;
#X obj 491 100 -~ 0.5;
#X obj 491 149 clip~ -0.5 0.5;
#X obj 491 172 cos~;
#X obj 491 125 *~ 3;
#X text 147 32 test sound for phaser;
#X obj 91 285 *~ 0.9;
#X obj 87 74 phasor~ 56;
#X obj 221 74 phasor~ 57;
#X obj 356 77 phasor~ 58;
#X obj 491 77 phasor~ 59;
#X connect 0 0 5 0;
#X connect 1 0 2 0;
#X connect 2 0 3 0;
#X connect 3 0 19 0;
#X connect 5 0 1 0;
#X connect 6 0 9 0;
#X connect 7 0 8 0;
#X connect 8 0 3 0;
#X connect 9 0 7 0;
#X connect 10 0 13 0;
#X connect 11 0 12 0;
#X connect 12 0 3 0;
#X connect 13 0 11 0;
#X connect 14 0 17 0;
#X connect 15 0 16 0;
#X connect 16 0 3 0;
#X connect 17 0 15 0;
#X connect 19 0 4 0;
#X connect 20 0 0 0;
#X connect 21 0 6 0;
#X connect 22 0 10 0;
#X connect 23 0 14 0;
#X restore -145 525 pd chord;
#X obj -146 787 output~;
#X obj -123 579 rpole~;
#X obj -123 554 rzero_rev~;
#X obj -123 628 rpole~;
#X obj -123 603 rzero_rev~;
#X obj -123 676 rpole~;
#X obj -123 651 rzero_rev~;
#X obj -123 725 rpole~;
#X obj -123 700 rzero_rev~;
#X obj -146 755 +~;
#X obj 32 703 expr~ 1 - 0.03 - 0.6*abs($v1-0.5)*abs($v1-0.5);
#X obj 32 671 phasor~ 0.5;
#X connect 0 0 4 0;
#X connect 1 0 2 0;
#X connect 2 0 0 0;
#X connect 3 0 6 1;
#X connect 4 0 5 0;
#X connect 5 0 40 0;
#X connect 5 0 40 1;
#X connect 6 0 1 0;
#X connect 7 0 29 0;
#X connect 8 0 15 1;
#X connect 9 0 14 1;
#X connect 10 0 12 1;
#X connect 12 0 14 0;
#X connect 13 0 12 0;
#X connect 14 0 15 0;
#X connect 15 0 6 0;
#X connect 16 0 25 0;
#X connect 17 0 26 0;
#X connect 18 0 27 0;
#X connect 19 0 28 0;
#X connect 20 0 3 0;
#X connect 21 0 8 0;
#X connect 22 0 9 0;
#X connect 23 0 10 0;
#X connect 24 0 13 0;
#X connect 25 0 4 1;
#X connect 26 0 0 1;
#X connect 27 0 2 1;
#X connect 28 0 1 1;
#X connect 29 0 5 1;
#X connect 30 0 13 1;
#X connect 31 0 10 1;
#X connect 32 0 8 1;
#X connect 33 0 3 1;
#X connect 34 0 28 1;
#X connect 35 0 27 1;
#X connect 36 0 26 1;
#X connect 37 0 25 1;
#X connect 38 0 29 1;
#X connect 39 0 9 1;
#X connect 43 0 46 0;
#X connect 43 0 53 0;
#X connect 45 0 48 0;
#X connect 46 0 45 0;
#X connect 47 0 50 0;
#X connect 48 0 47 0;
#X connect 49 0 52 0;
#X connect 50 0 49 0;
#X connect 51 0 53 1;
#X connect 52 0 51 0;
#X connect 53 0 44 0;
#X connect 53 0 44 1;
#X connect 54 0 46 1;
#X connect 54 0 45 1;
#X connect 54 0 48 1;
#X connect 54 0 47 1;
#X connect 54 0 50 1;
#X connect 54 0 49 1;
#X connect 54 0 52 1;
#X connect 54 0 51 1;
#X connect 55 0 54 0;
#X restore 811 634 pd META;
#X msg -511 856 open G1.wav \, 1;
#X obj -175 796 sel 0 1 2 3 4 5 6 7 8 9 10 11 12 13;
#X obj -175 752 random 14;
#X msg -412 856 open G2.wav \, 1;
#X msg -307 854 open G3.wav \, 1;
#X msg -198 853 open G4.wav \, 1;
#X msg -98 852 open G5.wav \, 1;
#X msg 8 851 open G6.wav \, 1;
#X msg -512 886 open G7.wav \, 1;
#X msg -403 888 open G8.wav \, 1;
#X msg -287 890 open G9.wav \, 1;
#X msg -183 891 open G10.wav \, 1;
#X msg -78 891 open G11.wav \, 1;
#X msg 30 897 open G12.wav \, 1;
#X msg -531 927 open G13.wav \, 1;
#X msg -387 931 open G14.wav \, 1;
#X floatatom 363 895 5 0 0 0 - - -;
#X obj 307 1230 dac~ 1 2;
#X msg 14 984 open G1.wav \, 1;
#X obj 363 917 sel 0 1 2 3 4 5 6 7 8 9 10 11 12 13;
#X obj 363 873 random 14;
#X msg 113 984 open G2.wav \, 1;
#X msg 218 982 open G3.wav \, 1;
#X msg 327 981 open G4.wav \, 1;
#X msg 427 980 open G5.wav \, 1;
#X msg 533 979 open G6.wav \, 1;
#X msg 13 1014 open G7.wav \, 1;
#X msg 122 1016 open G8.wav \, 1;
#X msg 238 1018 open G9.wav \, 1;
#X msg 342 1019 open G10.wav \, 1;
#X msg 447 1019 open G11.wav \, 1;
#X msg 555 1025 open G12.wav \, 1;
#X msg -6 1055 open G13.wav \, 1;
#X msg 138 1059 open G14.wav \, 1;
#X obj -225 1051 readsf~ 14;
#X obj 307 1197 readsf~ 14;
#X floatatom 863 895 5 0 0 0 - - -;
#X obj -174 729 metro 7000;
#X msg 785 957 open Z5.wav \, 1;
#X msg 888 957 open Z7.wav \, 1;
#X msg 986 955 open Z8.wav \, 1;
#X msg 1094 957 open Z9.wav \, 1;
#X msg 681 995 open Z10.wav \, 1;
#X msg 787 993 open Z11.wav \, 1;
#X msg 892 991 open Z12.wav \, 1;
#X msg 1000 992 open Z13.wav \, 1;
#X msg 1112 990 open Z14.wav \, 1;
#X msg 682 1028 open Z15.wav \, 1;
#X msg 784 1030 open Z16.wav \, 1;
#X msg 885 1029 open Z17.wav \, 1;
#X msg 987 1029 open Z18.wav \, 1;
#X msg 1095 1029 open Z19.wav \, 1;
#X obj 865 917 sel 0 1 2 3 4 5 6 7 8 9 10 11 12 13 14;
#X obj 755 1171 dac~ 1 2;
#X obj 755 1138 readsf~ 15;
#X obj 812 745 bng 15 250 50 0 empty empty empty 17 7 0 10 -262144
-1 -1;
#X floatatom 1274 896 5 0 0 0 - - -;
#X obj 1274 874 random 9;
#X obj 1276 918 sel 0 1 2 3 4 5 6 7 8;
#X msg 1251 962 open J1.wav \, 1;
#X obj 1292 1134 dac~ 1 2;
#X obj 1292 1101 readsf~ 9;
#X msg 1342 962 open J2.wav \, 1;
#X msg 1445 960 open J3.wav \, 1;
#X msg 1564 956 open J4.wav \, 1;
#X msg 1258 990 open J5.wav \, 1;
#X msg 1365 991 open J6.wav \, 1;
#X msg 1469 987 open J7.wav \, 1;
#X msg 1573 988 open J8.wav \, 1;
#X msg 1531 1039 open J8.wav \, 1;
#X obj 1201 670 fiddle~;
#X floatatom 1201 695 5 0 0 0 - - -;
#X obj 1201 723 moses 60;
#X obj 1201 749 bng 15 250 50 0 empty empty empty 17 7 0 10 -262144
-1 -1;
#X obj 1246 749 bng 15 250 50 0 empty empty empty 17 7 0 10 -262144
-1 -1;
#X obj 182 602 route;
#X obj 111 602 tabread;
#X obj -101 748 bng 15 250 50 0 empty empty empty 17 7 0 10 -262144
-1 -1;
#X msg 1201 847 stop;
#X obj 1289 806 bng 15 250 50 0 empty empty empty 17 7 0 10 -262144
-1 -1;
#X obj 1289 782 metro 500000;
#X obj 1201 809 metro 500000;
#X obj 1217 830 bng 15 250 50 0 empty empty empty 17 7 0 10 -262144
-1 -1;
#X obj 513 1125 vsl 15 128 0 127 0 0 empty empty empty 0 -9 0 10 -262144
-1 -1 1200 1;
#X obj -83 1080 vsl 15 128 0 127 0 0 empty empty empty 0 -9 0 10 -262144
-1 -1 0 1;
#X obj -30 1132 hsl 128 15 0 127 0 0 empty empty empty -2 -8 0 10 -262144
-1 -1 0 1;
#X obj 556 1171 hsl 128 15 0 127 0 0 empty empty empty -2 -8 0 10 -262144
-1 -1 1200 1;
#X obj 862 737 fiddle~;
#X floatatom 862 763 5 0 0 0 - - -;
#X obj 862 791 moses 60;
#X obj 363 807 bng 15 250 50 0 empty empty empty 17 7 0 10 -262144
-1 -1;
#X obj 880 813 bng 15 250 50 0 empty empty empty 17 7 0 10 -262144
-1 -1;
#X obj 873 856 bng 15 250 50 0 empty empty empty 17 7 0 10 -262144
-1 -1;
#X obj 379 857 bng 15 250 50 0 empty empty empty 17 7 0 10 -262144
-1 -1;
#X obj 863 833 metro 10000;
#X obj 363 836 metro 13000;
#X obj 863 875 random 15;
#X obj 757 712 metro 20000;
#X obj 219 692 dac~ 1 2;
#X obj 191 645 equal_power_pan~;
#X obj 405 1238 dac~ 1 2;
#X obj 387 1193 equal_power_pan~;
#X obj 239 712 dac~ 1 2;
#X obj 211 665 equal_power_pan~;
#X obj 219 692 dac~ 1 2;
#X obj 191 645 equal_power_pan~;
#X obj -40 680 dac~ 1 2;
#X obj -68 633 equal_power_pan~;
#X obj 391 1165 *~ 5;
#X obj 462 815 bng 15 250 50 0 empty empty empty 17 7 0 10 -262144
-1 -1;
#X obj 478 865 bng 15 250 50 0 empty empty empty 17 7 0 10 -262144
-1 -1;
#X obj 462 844 metro 13000;
#X obj 462 881 random 127;
#X connect 0 0 12 0;
#X connect 1 0 5 0;
#X connect 1 0 9 0;
#X connect 1 0 81 0;
#X connect 1 0 98 0;
#X connect 2 0 48 0;
#X connect 2 0 8 0;
#X connect 6 0 5 0;
#X connect 7 0 45 0;
#X connect 7 0 46 0;
#X connect 7 0 65 0;
#X connect 8 0 6 0;
#X connect 8 0 108 0;
#X connect 9 0 2 0;
#X connect 11 0 45 0;
#X connect 12 0 11 0;
#X connect 12 1 14 0;
#X connect 12 2 15 0;
#X connect 12 3 16 0;
#X connect 12 4 17 0;
#X connect 12 5 18 0;
#X connect 12 6 19 0;
#X connect 12 7 20 0;
#X connect 12 8 21 0;
#X connect 12 9 22 0;
#X connect 12 10 23 0;
#X connect 12 11 24 0;
#X connect 12 12 25 0;
#X connect 12 13 26 0;
#X connect 13 0 0 0;
#X connect 14 0 45 0;
#X connect 15 0 45 0;
#X connect 16 0 45 0;
#X connect 17 0 45 0;
#X connect 18 0 45 0;
#X connect 19 0 45 0;
#X connect 20 0 45 0;
#X connect 21 0 45 0;
#X connect 22 0 45 0;
#X connect 23 0 45 0;
#X connect 24 0 45 0;
#X connect 25 0 45 0;
#X connect 26 0 45 0;
#X connect 27 0 30 0;
#X connect 29 0 46 0;
#X connect 30 0 29 0;
#X connect 30 1 32 0;
#X connect 30 2 33 0;
#X connect 30 3 34 0;
#X connect 30 4 35 0;
#X connect 30 5 36 0;
#X connect 30 6 37 0;
#X connect 30 7 38 0;
#X connect 30 8 39 0;
#X connect 30 9 40 0;
#X connect 30 10 41 0;
#X connect 30 11 42 0;
#X connect 30 12 43 0;
#X connect 30 13 44 0;
#X connect 31 0 27 0;
#X connect 32 0 46 0;
#X connect 33 0 46 0;
#X connect 34 0 46 0;
#X connect 35 0 46 0;
#X connect 36 0 46 0;
#X connect 37 0 46 0;
#X connect 38 0 46 0;
#X connect 39 0 46 0;
#X connect 40 0 46 0;
#X connect 41 0 46 0;
#X connect 42 0 46 0;
#X connect 43 0 46 0;
#X connect 44 0 46 0;
#X connect 45 0 3 0;
#X connect 45 0 3 1;
#X connect 45 12 3 1;
#X connect 45 14 3 1;
#X connect 46 0 28 0;
#X connect 46 0 28 1;
#X connect 46 1 112 0;
#X connect 46 12 28 1;
#X connect 46 14 28 1;
#X connect 47 0 63 0;
#X connect 48 0 13 0;
#X connect 48 0 88 0;
#X connect 49 0 65 0;
#X connect 50 0 65 0;
#X connect 51 0 65 0;
#X connect 52 0 65 0;
#X connect 53 0 65 0;
#X connect 54 0 65 0;
#X connect 55 0 65 0;
#X connect 56 0 65 0;
#X connect 57 0 65 0;
#X connect 58 0 65 0;
#X connect 59 0 65 0;
#X connect 60 0 65 0;
#X connect 61 0 65 0;
#X connect 62 0 65 0;
#X connect 63 0 49 0;
#X connect 63 2 50 0;
#X connect 63 3 51 0;
#X connect 63 4 52 0;
#X connect 63 5 53 0;
#X connect 63 6 54 0;
#X connect 63 7 55 0;
#X connect 63 8 56 0;
#X connect 63 9 57 0;
#X connect 63 10 58 0;
#X connect 63 11 59 0;
#X connect 63 12 60 0;
#X connect 63 13 61 0;
#X connect 63 14 62 0;
#X connect 65 0 64 0;
#X connect 65 0 64 1;
#X connect 65 12 64 1;
#X connect 65 14 64 1;
#X connect 67 0 69 0;
#X connect 68 0 67 0;
#X connect 69 0 70 0;
#X connect 69 1 73 0;
#X connect 69 2 74 0;
#X connect 69 3 75 0;
#X connect 69 4 76 0;
#X connect 69 5 77 0;
#X connect 69 6 78 0;
#X connect 69 7 79 0;
#X connect 69 8 80 0;
#X connect 70 0 72 0;
#X connect 72 0 71 0;
#X connect 72 0 71 1;
#X connect 72 9 71 1;
#X connect 73 0 72 0;
#X connect 74 0 72 0;
#X connect 75 0 72 0;
#X connect 76 0 72 0;
#X connect 77 0 72 0;
#X connect 78 0 72 0;
#X connect 79 0 72 0;
#X connect 80 0 72 0;
#X connect 81 0 82 0;
#X connect 82 0 83 0;
#X connect 83 0 84 0;
#X connect 83 1 85 0;
#X connect 84 0 92 0;
#X connect 85 0 91 0;
#X connect 89 0 72 0;
#X connect 91 0 90 0;
#X connect 91 0 68 0;
#X connect 92 0 89 0;
#X connect 92 0 93 0;
#X connect 94 0 112 1;
#X connect 97 0 112 1;
#X connect 98 0 99 0;
#X connect 99 0 100 0;
#X connect 100 0 101 0;
#X connect 100 0 120 0;
#X connect 100 1 102 0;
#X connect 101 0 106 0;
#X connect 102 0 105 0;
#X connect 105 0 103 0;
#X connect 105 0 107 0;
#X connect 106 0 104 0;
#X connect 106 0 31 0;
#X connect 107 0 47 0;
#X connect 108 0 7 0;
#X connect 108 0 66 0;
#X connect 110 0 109 0;
#X connect 110 1 109 1;
#X connect 112 0 111 0;
#X connect 112 1 111 1;
#X connect 114 0 113 0;
#X connect 114 1 113 1;
#X connect 116 0 115 0;
#X connect 116 1 115 1;
#X connect 118 0 117 0;
#X connect 118 1 117 1;
#X connect 119 0 112 0;
#X connect 120 0 122 0;
#X connect 122 0 121 0;
#X connect 122 0 123 0;
#X connect 123 0 97 0;
#X connect 123 0 94 0;
#X coords 0 0 2 1 0 0 0;
