#N canvas 151 23 1330 712 10;
#X obj 496 492 dac~;
#X floatatom 10 79 5 0 0 0 - - -;
#X floatatom 157 64 5 0 0 0 - - -;
#X floatatom 308 60 5 0 0 0 - - -;
#X floatatom 454 58 5 0 0 0 - - -;
#X floatatom 609 60 5 0 0 0 - - -;
#X floatatom 766 51 5 0 0 0 - - -;
#X floatatom 924 48 5 0 0 0 - - -;
#X floatatom 1076 46 5 0 0 0 - - -;
#X floatatom 10 13 5 0 0 0 - - -;
#X obj 10 50 * 1;
#X obj 157 34 * 2;
#X obj 308 30 * 3;
#X obj 454 30 * 4;
#X obj 609 29 * 5;
#X obj 766 23 * 6;
#X obj 924 20 * 7;
#X obj 1076 16 * 8;
#X obj 84 63 / 100;
#X floatatom 84 87 5 0 0 0 - - -;
#X msg 84 108 \$1 3000;
#X obj 84 137 line~;
#X obj 628 359 *~ 1;
#X obj 686 365 *~ 0.7;
#X obj 745 368 *~ 0.5;
#X obj 806 367 *~ 0.4;
#X obj 876 368 *~ 0.3;
#X obj 940 370 *~ 0.3;
#X obj 1003 367 *~ 0.2;
#X obj 1062 366 *~ 0.1;
#X obj 758 442 *~ 0.4;
#X obj 759 483 dac~;
#X floatatom 628 301 5 0 0 0 - - -;
#X floatatom 685 298 5 0 0 0 - - -;
#X floatatom 744 298 5 0 0 0 - - -;
#X floatatom 807 298 5 0 0 0 - - -;
#X floatatom 875 301 5 0 0 0 - - -;
#X floatatom 940 298 5 0 0 0 - - -;
#X floatatom 1003 301 5 0 0 0 - - -;
#X floatatom 1062 302 5 0 0 0 - - -;
#X obj 1062 334 osc~;
#X obj 1003 332 osc~;
#X obj 940 333 osc~;
#X obj 875 333 osc~;
#X obj 807 330 osc~;
#X obj 745 330 osc~;
#X obj 685 331 osc~;
#X obj 628 332 osc~;
#X floatatom 694 212 5 0 0 0 - - -;
#X obj 628 272 * 1;
#X obj 685 268 * 2;
#X obj 744 268 * 3;
#X obj 807 270 * 4;
#X obj 875 270 * 5;
#X obj 940 270 * 6;
#X obj 1003 273 * 7;
#X obj 1062 272 * 8;
#X obj 11 187 *~;
#X obj 234 54 / 100;
#X floatatom 234 78 5 0 0 0 - - -;
#X msg 234 99 \$1 3000;
#X obj 234 128 line~;
#X obj 383 57 / 100;
#X floatatom 383 81 5 0 0 0 - - -;
#X msg 383 102 \$1 3000;
#X obj 383 131 line~;
#X obj 157 168 *~;
#X obj 309 174 *~;
#X obj 534 56 / 100;
#X floatatom 534 80 5 0 0 0 - - -;
#X msg 534 101 \$1 3000;
#X obj 534 130 line~;
#X obj 450 178 *~;
#X obj 611 158 *~;
#X obj 766 153 *~;
#X obj 915 170 *~;
#X obj 1045 185 *~;
#X obj 695 51 / 100;
#X floatatom 695 75 5 0 0 0 - - -;
#X msg 695 96 \$1 3000;
#X obj 695 125 line~;
#X obj 850 50 / 100;
#X floatatom 850 74 5 0 0 0 - - -;
#X msg 850 95 \$1 3000;
#X obj 850 124 line~;
#X obj 1001 47 / 100;
#X floatatom 1001 71 5 0 0 0 - - -;
#X msg 1001 92 \$1 3000;
#X obj 1001 121 line~;
#X obj 1157 20 random 100;
#X obj 1157 47 / 100;
#X floatatom 1157 71 5 0 0 0 - - -;
#X msg 1157 92 \$1 3000;
#X obj 1157 121 line~;
#X obj 495 451 *~ 0.4;
#X obj 10 110 osc~ 46.572;
#X obj 157 97 osc~ 60.544;
#X obj 309 92 osc~ 78.708;
#X obj 454 90 osc~ 102.321;
#X obj 609 92 osc~ 133.017;
#X obj 766 86 osc~ 172.922;
#X obj 924 79 osc~ 224.798;
#X obj 1076 78 osc~ 292.238;
#X floatatom 542 349 5 0 0 0 - - -;
#X obj 84 36 random 100;
#X obj 234 27 random 100;
#X obj 383 30 random 100;
#X obj 534 29 random 100;
#X obj 695 24 random 100;
#X obj 850 23 random 100;
#X obj 1001 20 random 100;
#X obj 788 -151 adc~;
#X obj 857 -166 bng 15 250 50 0 empty empty empty 17 7 0 10 -262144
-1 -1;
#X obj 857 -140 metro 160;
#X obj 788 -71 threshold~ 1 3000 0.1 1000;
#X obj 859 -108 tabwrite~ array1;
#N canvas 0 22 450 300 (subpatch) 0;
#X array array1 100 float 3;
#A 0 -0.000457778 -0.000335704 -0.000183111 -0.000152593 -0.000244148
-0.000427259 -0.00061037 -0.000732444 -0.000671407 -0.000579852 -0.000366222
-0.000244148 -0.00021363 -0.000335704 -0.000488296 -0.000671407 -0.000671407
-0.000549333 -0.000305185 -6.1037e-05 3.05185e-05 -6.1037e-05 -0.000274667
-0.000549333 -0.000732444 -0.000732444 -0.00061037 -0.000427259 -0.000244148
-0.000183111 -0.000335704 -0.000549333 -0.000762963 -0.000824 -0.000671407
-0.000427259 -0.000183111 6.1037e-05 0 -0.000183111 -0.000457778 -0.000640889
-0.000671407 -0.000518815 -0.000335704 -0.000152593 -0.000122074 -0.000274667
-0.000549333 -0.000854518 -0.000976592 -0.000915555 -0.000671407 -0.000335704
-6.1037e-05 6.1037e-05 -3.05185e-05 -0.000183111 -0.000396741 -0.000518815
-0.000518815 -0.000396741 -0.000305185 -0.000244148 -0.000305185 -0.000427259
-0.00061037 -0.000762963 -0.000762963 -0.000732444 -0.000579852 -0.000396741
-0.000244148 -0.000122074 -0.000152593 -0.000244148 -0.000305185 -0.000366222
-0.000335704 -0.000244148 -0.000183111 -0.000152593 -0.00021363 -0.000335704
-0.000488296 -0.000640889 -0.000732444 -0.000671407 -0.000549333 -0.000396741
-0.000274667 -0.000152593 -0.000122074 -0.000122074 -0.000122074 -0.000122074
-6.1037e-05 3.05185e-05 6.1037e-05 6.1037e-05;
#X coords 0 1 99 -1 200 140 1;
#X restore 983 -161 graph;
#X obj 694 185 random 10;
#X obj 10 -26 random 5;
#X obj 788 -109 *~ 50;
#X text 385 -119 Miguel Oliveros \, Madrid 2015;
#X connect 1 0 95 0;
#X connect 2 0 96 0;
#X connect 3 0 97 0;
#X connect 4 0 98 0;
#X connect 5 0 99 0;
#X connect 6 0 100 0;
#X connect 7 0 101 0;
#X connect 8 0 102 0;
#X connect 9 0 10 0;
#X connect 9 0 11 0;
#X connect 9 0 12 0;
#X connect 9 0 13 0;
#X connect 9 0 14 0;
#X connect 9 0 15 0;
#X connect 9 0 16 0;
#X connect 9 0 17 0;
#X connect 9 0 103 0;
#X connect 10 0 1 0;
#X connect 11 0 2 0;
#X connect 12 0 3 0;
#X connect 13 0 4 0;
#X connect 14 0 5 0;
#X connect 15 0 6 0;
#X connect 16 0 7 0;
#X connect 17 0 8 0;
#X connect 18 0 19 0;
#X connect 19 0 20 0;
#X connect 20 0 21 0;
#X connect 21 0 57 1;
#X connect 22 0 30 0;
#X connect 23 0 30 0;
#X connect 24 0 30 0;
#X connect 25 0 30 0;
#X connect 26 0 30 0;
#X connect 27 0 30 0;
#X connect 28 0 30 0;
#X connect 29 0 30 0;
#X connect 30 0 31 0;
#X connect 30 0 31 1;
#X connect 32 0 47 0;
#X connect 33 0 46 0;
#X connect 34 0 45 0;
#X connect 35 0 44 0;
#X connect 36 0 43 0;
#X connect 37 0 42 0;
#X connect 38 0 41 0;
#X connect 39 0 40 0;
#X connect 40 0 29 0;
#X connect 41 0 28 0;
#X connect 42 0 27 0;
#X connect 43 0 26 0;
#X connect 44 0 25 0;
#X connect 45 0 24 0;
#X connect 46 0 23 0;
#X connect 47 0 22 0;
#X connect 48 0 49 0;
#X connect 48 0 50 0;
#X connect 48 0 51 0;
#X connect 48 0 52 0;
#X connect 48 0 53 0;
#X connect 48 0 54 0;
#X connect 48 0 55 0;
#X connect 48 0 56 0;
#X connect 48 0 94 1;
#X connect 49 0 32 0;
#X connect 50 0 33 0;
#X connect 51 0 34 0;
#X connect 52 0 35 0;
#X connect 53 0 36 0;
#X connect 54 0 37 0;
#X connect 55 0 38 0;
#X connect 56 0 39 0;
#X connect 57 0 94 0;
#X connect 58 0 59 0;
#X connect 59 0 60 0;
#X connect 60 0 61 0;
#X connect 61 0 66 1;
#X connect 62 0 63 0;
#X connect 63 0 64 0;
#X connect 64 0 65 0;
#X connect 65 0 67 1;
#X connect 66 0 94 0;
#X connect 67 0 94 0;
#X connect 68 0 69 0;
#X connect 69 0 70 0;
#X connect 70 0 71 0;
#X connect 71 0 72 1;
#X connect 72 0 94 0;
#X connect 73 0 94 0;
#X connect 74 0 94 0;
#X connect 75 0 94 0;
#X connect 76 0 94 0;
#X connect 77 0 78 0;
#X connect 78 0 79 0;
#X connect 79 0 80 0;
#X connect 80 0 73 1;
#X connect 81 0 82 0;
#X connect 82 0 83 0;
#X connect 83 0 84 0;
#X connect 84 0 74 1;
#X connect 85 0 86 0;
#X connect 86 0 87 0;
#X connect 87 0 88 0;
#X connect 88 0 75 1;
#X connect 89 0 90 0;
#X connect 90 0 91 0;
#X connect 91 0 92 0;
#X connect 92 0 93 0;
#X connect 93 0 76 1;
#X connect 94 0 0 0;
#X connect 94 0 0 1;
#X connect 95 0 57 0;
#X connect 96 0 66 0;
#X connect 97 0 67 0;
#X connect 98 0 72 0;
#X connect 99 0 73 0;
#X connect 100 0 74 0;
#X connect 101 0 75 0;
#X connect 102 0 76 0;
#X connect 103 0 30 1;
#X connect 104 0 18 0;
#X connect 105 0 58 0;
#X connect 106 0 62 0;
#X connect 107 0 68 0;
#X connect 108 0 77 0;
#X connect 109 0 81 0;
#X connect 110 0 85 0;
#X connect 111 0 115 0;
#X connect 111 0 119 0;
#X connect 112 0 113 0;
#X connect 113 0 115 0;
#X connect 114 0 89 0;
#X connect 114 0 110 0;
#X connect 114 0 109 0;
#X connect 114 0 108 0;
#X connect 114 0 107 0;
#X connect 114 0 106 0;
#X connect 114 0 105 0;
#X connect 114 0 104 0;
#X connect 114 0 117 0;
#X connect 114 0 118 0;
#X connect 117 0 48 0;
#X connect 118 0 9 0;
#X connect 119 0 114 0;
